<svg xmlns="http://www.w3.org/2000/svg" width="118" height="33" viewBox="0 0 92 33" style="cursor:pointer"><defs><clipPath id="a"><path d="M0 0h92v33H0z"/></clipPath></defs><g data-name="Artboard \u2013 1" clip-path="url(#a)"><path data-name="Path 4665" d="M78.758 21.823a8.412 8.412 0 1 0-8.352-8.474 8.471 8.471 0 0 0 8.352 8.474zm.07-13.038a4.569 4.569 0 0 1 4.612 4.578 4.638 4.638 0 0 1-4.635 4.706 4.711 4.711 0 0 1-4.647-4.612 4.638 4.638 0 0 1 4.678-4.672z" fill="#FDC31A"/><path data-name="Path 4666" d="M17.752 23.949h-7.114l1.234-2.847c.24-.6.475-1.2.718-1.8l4.16-10.283 1.5-3.7v-.011H5v3.71h7.706l-.328.812a5.062 5.062 0 0 1-.139.371c-1.886 4.578-3.731 9.17-5.612 13.749l-1.279 3.275-.18.452h13.28v-3.728z" fill="#060606"/><path data-name="Path 4667" d="M43.624 19.718c-.007-.209-.008-.422-.013-.633V5.148h-3.8v.913a2.882 2.882 0 0 0-.017.369c.009.7.012 1.4.017 2.1v10.555h.011v.86a3.916 3.916 0 0 1-.906 2.837 5.712 5.712 0 0 1-5.971 1.088c-1.772-.669-2.561-1.948-2.564-4.189q-.007-5.876 0-11.752V5.142h-3.804v13.937l.028 1.147a8.372 8.372 0 0 0 .3 2.323c.967 3.34 4.193 5.509 8.253 5.451 4.605-.064 8.653-2.472 8.466-8.282z" fill="#060606"/><path data-name="Path 4668" d="M60.924 5.279h-5.192q-.751-.006-1.5-.015a1.5 1.5 0 0 0-.229.015h-.582v1.734c-.009.236-.01.44 0 .616v1.119h4.146v10.946c0 .44 0 .881-.01 1.324-.024 1.881-1 2.766-2.866 2.923h-3.067v3.642h3.887q.2-.019.391-.047a8.09 8.09 0 0 0 .976-.209 5.8 5.8 0 0 0 4.436-5.78c.02-.618.031-1.236.036-1.855v-.049c.006-.682 0-1.365 0-2.048v-3.444h.008V5.279z" fill="#060606"/><path data-name="Rectangle 6496" fill="#FDC31A" d="M71.202 23.936h15.032v3.737H71.202z"/></g></svg>